<?xml version="1.0" encoding="UTF-8"?>
<svg width="100%" height="100%" viewBox="0 0 1000 1000" xmlns="http://www.w3.org/2000/svg">
  <defs>
    <radialGradient id="nebula1" cx="30%" cy="30%" r="50%" fx="30%" fy="30%">
      <stop offset="0%" style="stop-color:#4B0082;stop-opacity:0.8"/>
      <stop offset="100%" style="stop-color:#000000;stop-opacity:0"/>
    </radialGradient>
    <radialGradient id="nebula2" cx="70%" cy="70%" r="50%" fx="70%" fy="70%">
      <stop offset="0%" style="stop-color:#00CED1;stop-opacity:0.8"/>
      <stop offset="100%" style="stop-color:#000000;stop-opacity:0"/>
    </radialGradient>
  </defs>
  
  <!-- Background -->
  <rect width="100%" height="100%" fill="#000000"/>
  
  <!-- Nebulae -->
  <circle cx="300" cy="300" r="400" fill="url(#nebula1)"/>
  <circle cx="700" cy="700" r="400" fill="url(#nebula2)"/>
  
  <!-- Stars -->
  <g fill="#FFFFFF">
    <!-- Small stars -->
    <circle cx="100" cy="100" r="1" opacity="0.8"/>
    <circle cx="200" cy="150" r="1" opacity="0.6"/>
    <circle cx="300" cy="200" r="1" opacity="0.7"/>
    <circle cx="400" cy="250" r="1" opacity="0.9"/>
    <circle cx="500" cy="300" r="1" opacity="0.8"/>
    <circle cx="600" cy="350" r="1" opacity="0.6"/>
    <circle cx="700" cy="400" r="1" opacity="0.7"/>
    <circle cx="800" cy="450" r="1" opacity="0.9"/>
    <circle cx="900" cy="500" r="1" opacity="0.8"/>
    
    <!-- Medium stars -->
    <circle cx="150" cy="150" r="2" opacity="0.8"/>
    <circle cx="250" cy="250" r="2" opacity="0.6"/>
    <circle cx="350" cy="350" r="2" opacity="0.7"/>
    <circle cx="450" cy="450" r="2" opacity="0.9"/>
    <circle cx="550" cy="550" r="2" opacity="0.8"/>
    <circle cx="650" cy="650" r="2" opacity="0.6"/>
    <circle cx="750" cy="750" r="2" opacity="0.7"/>
    <circle cx="850" cy="850" r="2" opacity="0.9"/>
    
    <!-- Large stars -->
    <circle cx="200" cy="200" r="3" opacity="0.8"/>
    <circle cx="400" cy="400" r="3" opacity="0.6"/>
    <circle cx="600" cy="600" r="3" opacity="0.7"/>
    <circle cx="800" cy="800" r="3" opacity="0.9"/>
  </g>
</svg> 